<svg id="icon" width="72" height="72" viewBox="0 0 72 72" fill="none" xmlns="http://www.w3.org/2000/svg">
<path fill-rule="evenodd" clip-rule="evenodd" d="M44.7026 14.3346L59.5934 9.4224L57.3416 24.94L71.9062 30.7487L60.2066 41.1884L67.63 55L51.9571 55.477L48.7658 70.8289L36.4531 61.12L24.1404 70.8289L20.949 55.477L5.27617 55L12.6995 41.1884L1 30.7487L15.5645 24.94L13.3127 9.4224L28.2036 14.3346L36.4531 1L44.7026 14.3346ZM36.4531 16.2059L31.688 23.9081L23.0869 21.0708L24.3875 30.034L15.9748 33.3891L22.7327 39.4193L18.4448 47.3971L27.4977 47.6726L29.3411 56.5401L36.4531 50.9321L43.5651 56.5401L45.4084 47.6726L54.4613 47.3971L50.1735 39.4193L56.9313 33.3891L48.5186 30.034L49.8193 21.0708L41.2181 23.9081L36.4531 16.2059Z" fill="currentColor"/>
</svg>
