<svg id="icon" width="24" height="24" viewBox="0 0 24 24" fill="none" xmlns="http://www.w3.org/2000/svg">
<path d="M12 0L14.7498 4.44487L19.7135 2.80747L18.9628 7.98L23.8177 9.91622L19.9179 13.3961L22.3923 18L17.168 18.159L16.1042 23.2763L12 20.04L7.89576 23.2763L6.83199 18.159L1.6077 18L4.08215 13.3961L0.182307 9.91622L5.03716 7.98L4.28655 2.80747L9.25016 4.44487L12 0Z" fill="#FFE600"/>
<path d="M12 4.75183L12.6238 5.76015L13.6609 7.43659L15.533 6.81903L16.659 6.44758L16.4888 7.62098L16.2057 9.57186L18.0367 10.3021L19.1381 10.7414L18.2534 11.5308L16.7825 12.8433L17.7158 14.5797L18.2771 15.6241L17.092 15.6602L15.1216 15.7201L14.7203 17.6502L14.479 18.8111L13.548 18.0769L12 16.8563L10.452 18.0769L9.52098 18.8111L9.27966 17.6502L8.87845 15.7201L6.90804 15.6602L5.7229 15.6241L6.28423 14.5797L7.2175 12.8433L5.74663 11.5308L4.86194 10.7414L5.96327 10.3021L7.79434 9.57186L7.51124 7.62098L7.34097 6.44758L8.46697 6.81903L10.3391 7.43659L11.3762 5.76015L12 4.75183Z" stroke="#FFA31A" stroke-width="5"/>
<path d="M12 1.90073L13.8994 4.97098L14.3143 5.64156L15.0631 5.39453L18.4917 4.26351L17.9732 7.83639L17.86 8.61674L18.5924 8.90885L21.9458 10.2463L19.2521 12.65L18.6637 13.175L19.037 13.8696L20.7462 17.0496L17.1376 17.1595L16.3494 17.1834L16.1889 17.9555L15.4542 21.4902L12.6192 19.2548L12 18.7665L11.3808 19.2548L8.54585 21.4902L7.81106 17.9555L7.65057 17.1834L6.86241 17.1595L3.25378 17.0496L4.96298 13.8696L5.33629 13.175L4.74794 12.65L2.05416 10.2463L5.4076 8.90885L6.14003 8.61674L6.02679 7.83639L5.50832 4.26351L8.93688 5.39453L9.68572 5.64156L10.1006 4.97098L12 1.90073Z" stroke="#FF3737" stroke-width="2"/>
</svg>
