<svg width="128" height="128" viewBox="0 0 128 128" fill="none" xmlns="http://www.w3.org/2000/svg">
<path d="M24 97.6H41.6V120H24V97.6Z" fill="#1C5BFF"/>
<path d="M24 75.2H41.6V97.6H24V75.2Z" fill="#2BF2FF"/>
<path d="M24 52.8H41.6V75.2H24V52.8Z" fill="#BD30FF"/>
<path d="M24 30.4H41.6V52.8H24V30.4Z" fill="#FF3737"/>
<path d="M24 8H41.6V30.4H24V8Z" fill="#FFE600"/>
<path d="M41.6 97.6H64V120H41.6V97.6Z" fill="#BD30FF"/>
<path d="M41.6 75.2H64V97.6H41.6V75.2Z" fill="#00DB16"/>
<path d="M41.6 52.8H64V75.2H41.6V52.8Z" fill="#1C5BFF"/>
<path d="M41.6 30.4H64V52.8H41.6V30.4Z" fill="#FF00E5"/>
<path d="M41.6 8H64V30.4H41.6V8Z" fill="#FFA31A"/>
<path d="M80 32.005H101L80 11V32.005Z" fill="white"/>
<path d="M64 97.6H86.4V120H64V97.6Z" fill="#FF3737"/>
<path d="M86.4 75.2H104V97.6H86.4V75.2Z" fill="#FFA31A"/>
<path d="M64 52.8H86.4V75.2H64V52.8Z" fill="#2BF2FF"/>
<path d="M64 30.4032H72V40H86.4V52.8H64V30.4032Z" fill="#BD30FF"/>
<path d="M64 8H72V30.4H64V8Z" fill="#FF3737"/>
<path d="M86.4 97.6H104V120H86.4V97.6Z" fill="#FF00E5"/>
<path d="M64 75.2H86.4V97.6H64V75.2Z" fill="#FFE600"/>
<path d="M86.4 52.8H104V75.2H86.4V52.8Z" fill="#00DB16"/>
<path d="M86.4 40H104V52.8H86.4V40Z" fill="#1C5BFF"/>
<path fill-rule="evenodd" clip-rule="evenodd" d="M72 40V8H24V120H104V40H72ZM112 32V128H16V0H80L112 32ZM80 11.3137L100.686 32H80V11.3137Z" fill="black"/>
<path fill-rule="evenodd" clip-rule="evenodd" d="M36.5751 64L30.05 57.4749L34.9997 52.5251L41.5249 59.0503L48.05 52.5251L52.9997 57.4749L46.4746 64L52.9997 70.5251L48.05 75.4749L41.5249 68.9497L34.9997 75.4749L30.05 70.5251L36.5751 64Z" fill="black"/>
<path fill-rule="evenodd" clip-rule="evenodd" d="M81.5249 64L74.9997 57.4749L79.9495 52.5251L86.4746 59.0503L92.9997 52.5251L97.9495 57.4749L91.4244 64L97.9495 70.5251L92.9997 75.4749L86.4746 68.9497L79.9495 75.4749L74.9997 70.5251L81.5249 64Z" fill="black"/>
<path d="M39 87H47V95H39V87Z" fill="black"/>
<path d="M47 95H83V103H47V95Z" fill="black"/>
<path d="M83 87H91V95H83V87Z" fill="black"/>
</svg>
